<?xml version="1.0" encoding="UTF-8" standalone="no"?>
<!-- Created with Inkscape (http://www.inkscape.org/) -->

<svg
   xmlns:dc="http://purl.org/dc/elements/1.1/"
   xmlns:cc="http://creativecommons.org/ns#"
   xmlns:rdf="http://www.w3.org/1999/02/22-rdf-syntax-ns#"
   xmlns:svg="http://www.w3.org/2000/svg"
   xmlns="http://www.w3.org/2000/svg"
   xmlns:sodipodi="http://sodipodi.sourceforge.net/DTD/sodipodi-0.dtd"
   xmlns:inkscape="http://www.inkscape.org/namespaces/inkscape"
   width="210mm"
   height="297mm"
   viewBox="0 0 210 297"
   version="1.1"
   id="svg8"
   inkscape:version="0.92.3 (2405546, 2018-03-11)"
   sodipodi:docname="pump_house_grey.svg"
   inkscape:export-filename="C:\Users\danie\bitmap.png"
   inkscape:export-xdpi="14.249351"
   inkscape:export-ydpi="14.249351">
  <defs
     id="defs2" />
  <sodipodi:namedview
     id="base"
     pagecolor="#ffffff"
     bordercolor="#666666"
     borderopacity="1.0"
     inkscape:pageopacity="0.0"
     inkscape:pageshadow="2"
     inkscape:zoom="1.4142136"
     inkscape:cx="63.865525"
     inkscape:cy="902.95131"
     inkscape:document-units="mm"
     inkscape:current-layer="layer1"
     showgrid="false"
     inkscape:window-width="1920"
     inkscape:window-height="1001"
     inkscape:window-x="-9"
     inkscape:window-y="-9"
     inkscape:window-maximized="1" />
  <metadata
     id="metadata5">
    <rdf:RDF>
      <cc:Work
         rdf:about="">
        <dc:format>image/svg+xml</dc:format>
        <dc:type
           rdf:resource="http://purl.org/dc/dcmitype/StillImage" />
        <dc:title></dc:title>
      </cc:Work>
    </rdf:RDF>
  </metadata>
  <g
     inkscape:label="Layer 1"
     inkscape:groupmode="layer"
     id="layer1">
    <path
       style="fill:none;stroke:#646464;stroke-width:2.82706904;stroke-linecap:butt;stroke-linejoin:miter;stroke-miterlimit:4;stroke-dasharray:none;stroke-opacity:1"
       d="M 3.9833272,36.934185 V 16.047905 L 22.382497,3.0548886 40.488856,16.067371 40.654474,36.963417"
       id="path838"
       inkscape:connector-curvature="0"
       sodipodi:nodetypes="ccccc" />
    <path
       style="fill:none;stroke:#646464;stroke-width:1.94239211;stroke-linecap:butt;stroke-linejoin:miter;stroke-miterlimit:4;stroke-dasharray:none;stroke-opacity:1"
       d="m 5.0466402,35.998747 c 2.172398,0 3.530071,-2.814163 5.7024698,-2.814163 2.172399,0 3.53007,2.814163 5.702469,2.814163 2.172399,0 3.530072,-2.814163 5.702469,-2.814163 2.172398,0 3.530071,2.814163 5.702468,2.814163 2.172398,0 3.530074,-2.814163 5.702471,-2.814163 2.172397,0 3.530072,2.814163 5.70247,2.814163"
       id="path844"
       inkscape:connector-curvature="0"
       sodipodi:nodetypes="czszzzc" />
    <g
       id="g1464"
       transform="translate(-51.681868,-10.28437)">
      <circle
         r="5.622396"
         cy="35.393227"
         cx="74.281769"
         id="path836"
         style="fill:#ffffff;fill-opacity:1;stroke:#646464;stroke-width:3;stroke-linecap:round;stroke-linejoin:round;stroke-miterlimit:4;stroke-dasharray:none;stroke-opacity:1" />
      <path
         sodipodi:nodetypes="czc"
         inkscape:connector-curvature="0"
         id="path846"
         d="m 74.234255,31.057344 c 0,0 -0.167539,-3.680127 0.613293,-4.989534 0.780832,-1.309407 3.358905,-2.38617 3.358905,-2.38617"
         style="fill:none;stroke:#646464;stroke-width:2;stroke-linecap:butt;stroke-linejoin:round;stroke-miterlimit:4;stroke-dasharray:none;stroke-opacity:1" />
      <path
         sodipodi:nodetypes="czc"
         inkscape:connector-curvature="0"
         id="path846-3"
         d="m 70.05372,35.876892 c 0,0 -3.683271,0.07009 -4.971557,-0.745115 -1.288286,-0.815209 -2.296449,-3.420873 -2.296449,-3.420873"
         style="fill:none;stroke:#646464;stroke-width:2;stroke-linecap:butt;stroke-linejoin:round;stroke-miterlimit:4;stroke-dasharray:none;stroke-opacity:1" />
      <path
         sodipodi:nodetypes="czc"
         inkscape:connector-curvature="0"
         id="path846-3-3"
         d="m 78.525069,35.581581 c 0,0 3.640938,-0.56122 5.02653,0.07469 1.385591,0.63591 2.732614,3.083645 2.732614,3.083645"
         style="fill:none;stroke:#646464;stroke-width:2;stroke-linecap:butt;stroke-linejoin:round;stroke-miterlimit:4;stroke-dasharray:none;stroke-opacity:1" />
      <path
         sodipodi:nodetypes="czc"
         inkscape:connector-curvature="0"
         id="path846-3-3-6"
         d="m 74.470662,39.678435 c 0,0 0.22775,3.676891 -0.531536,4.998903 -0.759296,1.322013 -3.3194,2.440841 -3.3194,2.440841"
         style="fill:none;stroke:#646464;stroke-width:2;stroke-linecap:butt;stroke-linejoin:round;stroke-miterlimit:4;stroke-dasharray:none;stroke-opacity:1" />
    </g>
    <path
       style="fill:none;stroke:#646464;stroke-width:1.94239211;stroke-linecap:butt;stroke-linejoin:miter;stroke-miterlimit:4;stroke-dasharray:none;stroke-opacity:1"
       d="m 5.2944452,40.02865 c 2.172399,0 3.530072,-2.814164 5.7024698,-2.814164 2.172399,0 3.530071,2.814164 5.702469,2.814164 2.172399,0 3.530072,-2.814164 5.702469,-2.814164 2.172398,0 3.530071,2.814164 5.702469,2.814164 2.172397,0 3.530073,-2.814164 5.702472,-2.814164 2.172394,0 3.530071,2.814164 5.702469,2.814164"
       id="path844-4"
       inkscape:connector-curvature="0"
       sodipodi:nodetypes="czszzzc" />
  </g>
</svg>
