<?xml version="1.0" encoding="UTF-8" standalone="no"?>
<svg
   xmlns:dc="http://purl.org/dc/elements/1.1/"
   xmlns:cc="http://creativecommons.org/ns#"
   xmlns:rdf="http://www.w3.org/1999/02/22-rdf-syntax-ns#"
   xmlns:svg="http://www.w3.org/2000/svg"
   xmlns="http://www.w3.org/2000/svg"
   xmlns:sodipodi="http://sodipodi.sourceforge.net/DTD/sodipodi-0.dtd"
   xmlns:inkscape="http://www.inkscape.org/namespaces/inkscape"
   fill="#000000"
   version="1.1"
   id="location-icon"
   width="800px"
   height="800px"
   viewBox="0 0 395.71 395.71"
   xml:space="preserve"
   sodipodi:docname="pump_station_red.svg"
   inkscape:version="0.92.3 (2405546, 2018-03-11)"><metadata
   id="metadata11"><rdf:RDF><cc:Work
       rdf:about=""><dc:format>image/svg+xml</dc:format><dc:type
         rdf:resource="http://purl.org/dc/dcmitype/StillImage" /><dc:title></dc:title></cc:Work></rdf:RDF></metadata><defs
   id="defs9">
	
</defs><sodipodi:namedview
   pagecolor="#ffffff"
   bordercolor="#666666"
   borderopacity="1"
   objecttolerance="10"
   gridtolerance="10"
   guidetolerance="10"
   inkscape:pageopacity="0"
   inkscape:pageshadow="2"
   inkscape:window-width="1920"
   inkscape:window-height="1001"
   id="namedview7"
   showgrid="true"
   inkscape:zoom="0.417193"
   inkscape:cx="-648.24852"
   inkscape:cy="464.94166"
   inkscape:window-x="-9"
   inkscape:window-y="-9"
   inkscape:window-maximized="1"
   inkscape:current-layer="location-icon"
   showguides="true"><inkscape:grid
     type="xygrid"
     id="grid4556" /></sodipodi:namedview>
<path
   inkscape:connector-curvature="0"
   id="path2"
   d="M 197.849,0 C 122.131,0 60.531,61.609 60.531,137.329 c 0,72.887 124.591,243.177 129.896,250.388 l 4.951,6.738 c 0.579,0.792 1.501,1.255 2.471,1.255 0.985,0 1.901,-0.463 2.486,-1.255 l 4.948,-6.738 C 210.591,380.506 335.179,210.216 335.179,137.329 335.179,61.609 273.569,0 197.849,0 Z"
   sodipodi:nodetypes="ssccsccss"
   style="fill:#ff6464;fill-opacity:1" />
<path
   style="fill:none;stroke:#ffffff;stroke-width:12.41395473;stroke-linecap:butt;stroke-linejoin:miter;stroke-miterlimit:4;stroke-dasharray:none;stroke-opacity:1"
   d="m 89.03475,185.2199 c 13.81862,0 22.45479,-18.07051 36.27341,-18.07051 13.81865,0 22.45479,18.07051 36.27343,18.07051 13.81862,0 22.45478,-18.07051 36.2734,-18.07051 13.81863,0 22.45479,18.07051 36.27341,18.07051 13.81863,0 22.4548,-18.07051 36.27344,-18.07051 13.8186,0 22.45478,18.07051 36.27341,18.07051"
   id="path844"
   inkscape:connector-curvature="0"
   sodipodi:nodetypes="czszzzc"
   inkscape:export-xdpi="14.249351"
   inkscape:export-ydpi="14.249351" /><g
   id="g4603"
   transform="translate(-2.967825,-9.89275)"><ellipse
     ry="36.102936"
     rx="35.506908"
     cy="115.29295"
     cx="199.8882"
     id="path836"
     style="fill:none;fill-opacity:1;stroke:#ffffff;stroke-width:19.10414124;stroke-linecap:round;stroke-linejoin:round;stroke-miterlimit:4;stroke-dasharray:none;stroke-opacity:1" /><path
     sodipodi:nodetypes="czc"
     inkscape:connector-curvature="0"
     id="path846"
     d="m 199.58813,87.451075 c 0,0 -1.05805,-23.631106 3.87311,-32.039164 4.93116,-8.408054 21.21237,-15.322242 21.21237,-15.322242"
     style="fill:none;stroke:#ffffff;stroke-width:12.73609257;stroke-linecap:butt;stroke-linejoin:round;stroke-miterlimit:4;stroke-dasharray:none;stroke-opacity:1" /><path
     sodipodi:nodetypes="czc"
     inkscape:connector-curvature="0"
     id="path846-3"
     d="m 173.18696,118.3987 c 0,0 -23.26082,0.45007 -31.39669,-4.78459 -8.13586,-5.23468 -14.50268,-21.966349 -14.50268,-21.966349"
     style="fill:none;stroke:#ffffff;stroke-width:12.73609257;stroke-linecap:butt;stroke-linejoin:round;stroke-miterlimit:4;stroke-dasharray:none;stroke-opacity:1" /><path
     sodipodi:nodetypes="czc"
     inkscape:connector-curvature="0"
     id="path846-3-3"
     d="m 226.68574,116.50243 c 0,0 22.99349,-3.60375 31.74386,0.4796 8.75037,4.08335 17.25718,19.80093 17.25718,19.80093"
     style="fill:none;stroke:#ffffff;stroke-width:12.73609257;stroke-linecap:butt;stroke-linejoin:round;stroke-miterlimit:4;stroke-dasharray:none;stroke-opacity:1" /><path
     sodipodi:nodetypes="czc"
     inkscape:connector-curvature="0"
     id="path846-3-3-6"
     d="m 201.0811,142.80945 c 0,0 1.43832,23.6103 -3.35678,32.0993 -4.79516,8.48901 -20.96289,15.67331 -20.96289,15.67331"
     style="fill:none;stroke:#ffffff;stroke-width:12.73609257;stroke-linecap:butt;stroke-linejoin:round;stroke-miterlimit:4;stroke-dasharray:none;stroke-opacity:1" /></g><path
   style="fill:none;stroke:#ffffff;stroke-width:12.41395473;stroke-linecap:butt;stroke-linejoin:miter;stroke-miterlimit:4;stroke-dasharray:none;stroke-opacity:1"
   d="m 89.03475,211.097 c 13.81864,0 22.45479,-18.07051 36.27341,-18.07051 13.81865,0 22.45479,18.07051 36.27343,18.07051 13.81862,0 22.45479,-18.07051 36.27341,-18.07051 13.81863,0 22.45479,18.07051 36.2734,18.07051 13.81863,0 22.4548,-18.07051 36.27344,-18.07051 13.81861,0 22.45479,18.07051 36.27341,18.07051"
   id="path844-4"
   inkscape:connector-curvature="0"
   sodipodi:nodetypes="czszzzc"
   inkscape:export-xdpi="14.249351"
   inkscape:export-ydpi="14.249351" /></svg>