<?xml version="1.0" encoding="UTF-8" standalone="no"?>
<svg
   xmlns:dc="http://purl.org/dc/elements/1.1/"
   xmlns:cc="http://creativecommons.org/ns#"
   xmlns:rdf="http://www.w3.org/1999/02/22-rdf-syntax-ns#"
   xmlns:svg="http://www.w3.org/2000/svg"
   xmlns="http://www.w3.org/2000/svg"
   xmlns:sodipodi="http://sodipodi.sourceforge.net/DTD/sodipodi-0.dtd"
   xmlns:inkscape="http://www.inkscape.org/namespaces/inkscape"
   fill="#000000"
   version="1.1"
   id="location-icon"
   width="800px"
   height="800px"
   viewBox="0 0 395.71 395.71"
   xml:space="preserve"
   sodipodi:docname="pump_house_red2.svg"
   inkscape:version="0.92.3 (2405546, 2018-03-11)"><metadata
   id="metadata11"><rdf:RDF><cc:Work
       rdf:about=""><dc:format>image/svg+xml</dc:format><dc:type
         rdf:resource="http://purl.org/dc/dcmitype/StillImage" /><dc:title></dc:title></cc:Work></rdf:RDF></metadata><defs
   id="defs9">
	
</defs><sodipodi:namedview
   pagecolor="#ffffff"
   bordercolor="#666666"
   borderopacity="1"
   objecttolerance="10"
   gridtolerance="10"
   guidetolerance="10"
   inkscape:pageopacity="0"
   inkscape:pageshadow="2"
   inkscape:window-width="1920"
   inkscape:window-height="1001"
   id="namedview7"
   showgrid="true"
   inkscape:zoom="0.417193"
   inkscape:cx="58.93687"
   inkscape:cy="441.18788"
   inkscape:window-x="-9"
   inkscape:window-y="-9"
   inkscape:window-maximized="1"
   inkscape:current-layer="location-icon"
   showguides="true"><inkscape:grid
     type="xygrid"
     id="grid4556" /></sodipodi:namedview>
<path
   inkscape:connector-curvature="0"
   id="path2"
   d="M 197.849,0 C 122.131,0 60.531,61.609 60.531,137.329 c 0,72.887 124.591,243.177 129.896,250.388 l 4.951,6.738 c 0.579,0.792 1.501,1.255 2.471,1.255 0.985,0 1.901,-0.463 2.486,-1.255 l 4.948,-6.738 C 210.591,380.506 335.179,210.216 335.179,137.329 335.179,61.609 273.569,0 197.849,0 Z"
   sodipodi:nodetypes="ssccsccss"
   style="fill:#ff6464;fill-opacity:1" />
<g
   transform="matrix(5.2947254,0,0,5.2947254,82.405126,21.769383)"
   id="g1494"
   inkscape:export-xdpi="14.249351"
   inkscape:export-ydpi="14.249351"
   style="stroke:#ffffff;stroke-opacity:1"><path
     inkscape:export-ydpi="14.249351"
     inkscape:export-xdpi="14.249351"
     sodipodi:nodetypes="ccccc"
     inkscape:connector-curvature="0"
     id="path838"
     d="M 3.9833272,36.934185 V 16.047905 L 22.382497,3.0548886 40.488856,16.067371 40.654474,36.963417"
     style="fill:none;stroke:#ffffff;stroke-width:2.82706904;stroke-linecap:butt;stroke-linejoin:miter;stroke-miterlimit:4;stroke-dasharray:none;stroke-opacity:1" /><path
     inkscape:export-ydpi="14.249351"
     inkscape:export-xdpi="14.249351"
     sodipodi:nodetypes="czszzzc"
     inkscape:connector-curvature="0"
     id="path844"
     d="m 5.0466402,35.998747 c 2.172398,0 3.530071,-2.814163 5.7024698,-2.814163 2.172399,0 3.53007,2.814163 5.702469,2.814163 2.172399,0 3.530072,-2.814163 5.702469,-2.814163 2.172398,0 3.530071,2.814163 5.702468,2.814163 2.172398,0 3.530074,-2.814163 5.702471,-2.814163 2.172397,0 3.530072,2.814163 5.70247,2.814163"
     style="fill:none;stroke:#ffffff;stroke-width:1.94239211;stroke-linecap:butt;stroke-linejoin:miter;stroke-miterlimit:4;stroke-dasharray:none;stroke-opacity:1" /><circle
     r="5.622396"
     cy="25.108856"
     cx="22.599901"
     id="path836"
     style="fill:none;fill-opacity:1;stroke:#ffffff;stroke-width:3;stroke-linecap:round;stroke-linejoin:round;stroke-miterlimit:4;stroke-dasharray:none;stroke-opacity:1" /><path
     sodipodi:nodetypes="czc"
     inkscape:connector-curvature="0"
     id="path846"
     d="m 22.552387,20.772974 c 0,0 -0.167539,-3.680127 0.613293,-4.989534 0.780832,-1.309407 3.358905,-2.38617 3.358905,-2.38617"
     style="fill:none;stroke:#ffffff;stroke-width:2;stroke-linecap:butt;stroke-linejoin:round;stroke-miterlimit:4;stroke-dasharray:none;stroke-opacity:1" /><path
     sodipodi:nodetypes="czc"
     inkscape:connector-curvature="0"
     id="path846-3"
     d="m 18.371852,25.592522 c 0,0 -3.683271,0.07009 -4.971557,-0.745115 -1.288286,-0.815209 -2.296449,-3.420873 -2.296449,-3.420873"
     style="fill:none;stroke:#ffffff;stroke-width:2;stroke-linecap:butt;stroke-linejoin:round;stroke-miterlimit:4;stroke-dasharray:none;stroke-opacity:1" /><path
     sodipodi:nodetypes="czc"
     inkscape:connector-curvature="0"
     id="path846-3-3"
     d="m 26.843201,25.297211 c 0,0 3.640938,-0.56122 5.02653,0.07469 1.385591,0.63591 2.732614,3.083645 2.732614,3.083645"
     style="fill:none;stroke:#ffffff;stroke-width:2;stroke-linecap:butt;stroke-linejoin:round;stroke-miterlimit:4;stroke-dasharray:none;stroke-opacity:1" /><path
     sodipodi:nodetypes="czc"
     inkscape:connector-curvature="0"
     id="path846-3-3-6"
     d="m 22.788794,29.394065 c 0,0 0.22775,3.676891 -0.531536,4.998903 -0.759296,1.322013 -3.3194,2.440841 -3.3194,2.440841"
     style="fill:none;stroke:#ffffff;stroke-width:2;stroke-linecap:butt;stroke-linejoin:round;stroke-miterlimit:4;stroke-dasharray:none;stroke-opacity:1" /><path
     inkscape:export-ydpi="14.249351"
     inkscape:export-xdpi="14.249351"
     sodipodi:nodetypes="czszzzc"
     inkscape:connector-curvature="0"
     id="path844-4"
     d="m 5.2944452,40.02865 c 2.172399,0 3.530072,-2.814164 5.7024698,-2.814164 2.172399,0 3.530071,2.814164 5.702469,2.814164 2.172399,0 3.530072,-2.814164 5.702469,-2.814164 2.172398,0 3.530071,2.814164 5.702469,2.814164 2.172397,0 3.530073,-2.814164 5.702472,-2.814164 2.172394,0 3.530071,2.814164 5.702469,2.814164"
     style="fill:none;stroke:#ffffff;stroke-width:1.94239211;stroke-linecap:butt;stroke-linejoin:miter;stroke-miterlimit:4;stroke-dasharray:none;stroke-opacity:1" /></g></svg>