<?xml version="1.0" encoding="UTF-8" standalone="no"?>
<svg
   xmlns:dc="http://purl.org/dc/elements/1.1/"
   xmlns:cc="http://creativecommons.org/ns#"
   xmlns:rdf="http://www.w3.org/1999/02/22-rdf-syntax-ns#"
   xmlns:svg="http://www.w3.org/2000/svg"
   xmlns="http://www.w3.org/2000/svg"
   xmlns:sodipodi="http://sodipodi.sourceforge.net/DTD/sodipodi-0.dtd"
   xmlns:inkscape="http://www.inkscape.org/namespaces/inkscape"
   fill="#000000"
   version="1.1"
   id="location-icon"
   width="800px"
   height="800px"
   viewBox="0 0 395.71 395.71"
   xml:space="preserve"
   sodipodi:docname="weir_green.svg"
   inkscape:version="0.92.3 (2405546, 2018-03-11)"><metadata
   id="metadata11"><rdf:RDF><cc:Work
       rdf:about=""><dc:format>image/svg+xml</dc:format><dc:type
         rdf:resource="http://purl.org/dc/dcmitype/StillImage" /><dc:title></dc:title></cc:Work></rdf:RDF></metadata><defs
   id="defs9">
	
</defs><sodipodi:namedview
   pagecolor="#ffffff"
   bordercolor="#666666"
   borderopacity="1"
   objecttolerance="10"
   gridtolerance="10"
   guidetolerance="10"
   inkscape:pageopacity="0"
   inkscape:pageshadow="2"
   inkscape:window-width="1920"
   inkscape:window-height="1001"
   id="namedview7"
   showgrid="true"
   inkscape:zoom="0.417193"
   inkscape:cx="58.93687"
   inkscape:cy="441.18788"
   inkscape:window-x="-9"
   inkscape:window-y="-9"
   inkscape:window-maximized="1"
   inkscape:current-layer="location-icon"
   showguides="true"><inkscape:grid
     type="xygrid"
     id="grid4556" /></sodipodi:namedview>
<path
   inkscape:connector-curvature="0"
   id="path2"
   d="M 197.849,0 C 122.131,0 60.531,61.609 60.531,137.329 c 0,72.887 124.591,243.177 129.896,250.388 l 4.951,6.738 c 0.579,0.792 1.501,1.255 2.471,1.255 0.985,0 1.901,-0.463 2.486,-1.255 l 4.948,-6.738 C 210.591,380.506 335.179,210.216 335.179,137.329 335.179,61.609 273.569,0 197.849,0 Z"
   sodipodi:nodetypes="ssccsccss"
   style="fill:#649664;fill-opacity:1" />
<path
   style="fill:none;stroke:#ffffff;stroke-width:4.76722288;stroke-linecap:butt;stroke-linejoin:miter;stroke-miterlimit:4;stroke-dasharray:none;stroke-opacity:1"
   d="M 197.42394,183.16845 V 21.195856"
   id="path1532"
   inkscape:connector-curvature="0" /><path
   style="fill:none;stroke:#ffffff;stroke-width:14.0612154;stroke-linecap:butt;stroke-linejoin:miter;stroke-miterlimit:4;stroke-dasharray:none;stroke-opacity:1"
   d="m 113.76662,225.97338 c 16.01707,0 26.02716,-20.00221 42.04423,-20.00221 16.01708,0 26.02712,20.00221 42.0442,20.00221 16.01707,0 26.02716,-20.00221 42.04418,-20.00221 16.01708,0 26.02709,20.00221 42.04415,20.00221"
   id="path844-5"
   inkscape:connector-curvature="0"
   sodipodi:nodetypes="czszc"
   inkscape:export-xdpi="14.249351"
   inkscape:export-ydpi="14.249351" /><path
   style="fill:none;stroke:#ffffff;stroke-width:14.06121254;stroke-linecap:butt;stroke-linejoin:miter;stroke-miterlimit:4;stroke-dasharray:none;stroke-opacity:1"
   d="m 113.76662,253.62743 c 16.01706,0 26.02716,-20.00221 42.04421,-20.00221 16.01706,0 26.02713,20.00221 42.04418,20.00221 16.01705,0 26.02714,-20.00221 42.04418,-20.00221 16.01704,0 26.02714,20.00221 42.04418,20.00221"
   id="path844-4-7"
   inkscape:connector-curvature="0"
   sodipodi:nodetypes="czszc"
   inkscape:export-xdpi="14.249351"
   inkscape:export-ydpi="14.249351" /><path
   style="fill:none;stroke:#ffffff;stroke-width:6.43028736;stroke-linecap:butt;stroke-linejoin:miter;stroke-miterlimit:4;stroke-dasharray:none;stroke-opacity:1"
   d="M 257.2115,244.09245 V 63.405821 H 140.97169 V 244.09245"
   id="path1607"
   inkscape:connector-curvature="0" /><rect
   style="fill:none;fill-opacity:1;stroke:#ffffff;stroke-width:6.37834358;stroke-linecap:round;stroke-linejoin:miter;stroke-miterlimit:4;stroke-dasharray:none;stroke-opacity:1"
   id="rect1615"
   width="116.23983"
   height="71.473183"
   x="140.97169"
   y="185.32965" /><path
   style="fill:none;stroke:#ffffff;stroke-width:7.10769463;stroke-linecap:butt;stroke-linejoin:miter;stroke-miterlimit:4;stroke-dasharray:none;stroke-opacity:1"
   d="m 188.167,59.252515 h 18.68823 v 0"
   id="path1617"
   inkscape:connector-curvature="0" /><path
   style="fill:none;stroke:#ffffff;stroke-width:9.43211746;stroke-linecap:butt;stroke-linejoin:miter;stroke-miterlimit:4;stroke-dasharray:none;stroke-opacity:1"
   d="m 180.93612,25.12644 h 32.9101 v 0"
   id="path1617-8"
   inkscape:connector-curvature="0" /></svg>